<?xml version="1.0" encoding="UTF-8"?>
<svg width="139px" height="26px" viewBox="0 0 139 26" version="1.1" xmlns="http://www.w3.org/2000/svg" xmlns:xlink="http://www.w3.org/1999/xlink">
    <!-- Generator: Sketch 46.2 (44496) - http://www.bohemiancoding.com/sketch -->
    <title>Logo</title>
    <desc>Created with Sketch.</desc>
    <defs></defs>
    <g stroke="none" stroke-width="1" fill="none" fill-rule="evenodd">
        <g fill-rule="nonzero" fill="#FFFFFF">
            <path d="M0,22.3054789 L0.430135259,21.9633938 L0.463222534,21.2450145 C1.01468187,19.8538609 1.58267535,18.5197416 2.16722196,17.2426175 C2.7517679,15.9654927 3.36387843,14.6541791 4.0035705,13.3086367 C4.2020955,12.875327 4.40613235,12.4420229 4.61568645,12.0087125 C4.82524123,11.5754028 5.02927739,11.1306966 5.2278024,10.6745806 C5.20574422,10.5833574 5.19471512,10.4864342 5.19471512,10.3838082 C5.19471512,10.2811815 5.21677331,10.1614534 5.26089035,10.0246182 C5.56970696,9.56850222 5.81785949,9.15800447 6.00535541,8.79311166 C6.192852,8.42821885 6.37483066,8.05192884 6.55129748,7.66423041 C6.74982249,7.2081144 6.96488775,6.7520054 7.19650071,6.2958894 C7.42811367,5.83977339 7.72038189,5.3950665 8.07331554,4.96175682 L8.30492715,4.61967174 L8.66888853,4.65388018 C8.75712127,4.60826823 8.85086787,4.56835909 8.95013105,4.53414995 C9.04939356,4.49994151 9.17622676,4.48283729 9.3306354,4.48283729 L9.92620771,4.5854626 C10.6541332,4.24337612 11.2993303,3.74735728 11.8618187,3.09739206 C12.4243065,2.44742684 12.9923007,1.66633978 13.5658175,0.754107764 L13.9628662,0.172562921 L14.4922639,0.514647999 C14.6025555,0.583065575 14.7790196,0.651482451 15.0216617,0.719899326 C15.2643031,0.788316902 15.5179701,0.86813589 15.7826704,0.959359091 C16.2458963,1.07338792 16.6980857,1.20451956 17.1392527,1.35275753 C17.5804191,1.50099479 17.9223189,1.70054261 18.1649603,1.95140659 L18.3303974,2.25928323 C18.3745137,2.51014721 18.4131156,2.73820136 18.4462028,2.94345339 C18.4792908,3.14870612 18.5178919,3.35395464 18.562009,3.55920737 C18.6502424,4.038129 18.7274453,4.51134222 18.7936206,4.97886104 C18.8597951,5.44637986 18.9039115,5.96520363 18.9259697,6.53534846 C19.0362613,6.99146447 19.141037,7.45327558 19.2402995,7.92079439 C19.3395627,8.38831321 19.4333093,8.85012362 19.521542,9.30623963 C19.6318343,9.96760766 19.7531529,10.6004589 19.8855034,11.2048128 C20.0178532,11.8091661 20.1943173,12.3850039 20.4149011,12.9323431 C20.6354843,12.9323431 20.7678328,12.943746 20.8119491,12.9665516 C21.0766494,12.8525228 21.3854619,12.7841059 21.7383955,12.7613003 L22.1685308,12.7270918 L22.3008806,13.1375945 C22.344997,13.2060113 22.4001424,13.2744282 22.4663176,13.3428451 C22.5324922,13.4112627 22.6096958,13.4796788 22.6979286,13.5480964 C23.0508622,13.570902 23.3100445,13.6450203 23.4754816,13.770452 C23.6409193,13.8958836 23.7787823,14.0156124 23.8890739,14.1296413 C23.9331902,14.1752532 23.9883357,14.2265652 24.0545109,14.2835799 C24.1206855,14.340594 24.1758309,14.3805038 24.2199473,14.4033095 L24.8155196,14.6427692 L24.4846462,15.292731 C24.2420048,15.7716533 23.8725329,16.2391651 23.3762198,16.6952811 C22.8799072,17.1513971 22.3229422,17.5276871 21.7053083,17.8241624 C21.7494246,17.9838024 21.7769974,18.1320383 21.7880265,18.2688727 C21.7990556,18.4057079 21.8266283,18.5653459 21.8707447,18.7477923 C21.9589781,19.2039083 22.0306672,19.6771215 22.0858126,20.1674459 C22.1409588,20.6577711 22.1354442,21.165192 22.069269,21.6897256 C21.8486858,22.2826761 21.5895042,22.8129034 21.291716,23.2804222 C20.9939285,23.747941 20.6410002,24.1698416 20.2329204,24.5461372 C19.8248413,24.9224328 19.3671374,25.2303066 18.8597951,25.4697678 C18.3524528,25.7092283 17.8230605,25.8403599 17.2716018,25.8631655 C16.9627852,25.794748 16.7366902,25.714929 16.5933107,25.6237058 C16.4499318,25.5324826 16.3230979,25.4412608 16.2128063,25.3500376 C16.0363395,25.2132031 15.8929627,25.1219813 15.7826704,25.0763694 L15.3525351,24.8711188 L15.4848842,24.3579908 C15.5510595,24.1755444 15.5455449,24.0159057 15.4683406,23.8790713 C15.3911363,23.7422361 15.2312158,23.5597925 14.9885737,23.3317348 C14.9003403,23.2633173 14.8231374,23.1891997 14.7569621,23.1093793 C14.6907876,23.0295589 14.6135846,22.9440385 14.5253512,22.8528153 L13.8636037,22.0660191 L14.9554865,21.7581425 C15.6172374,21.5756961 16.0583977,21.3419405 16.2789809,21.0568681 C16.4995647,20.771795 16.5877968,20.2643741 16.5436797,19.5345884 C15.9922211,19.4205596 15.5400317,19.4034554 15.1870981,19.4832758 C14.8341644,19.5630962 14.4812362,19.6486166 14.1283025,19.7398398 C13.6209602,19.8766742 13.1246552,19.9964031 12.6393711,20.0990291 C12.1540876,20.2016551 11.6246953,20.2529677 11.0511778,20.2529677 C10.676186,20.2529677 10.279142,20.2187593 9.86003316,20.1503417 L9.49607245,20.1161333 L9.39680995,19.7398398 C9.39680995,19.6942278 9.3692379,19.6429159 9.31409176,19.5859011 L9.16519834,19.4319631 C9.05490675,19.295128 8.922559,19.1126844 8.76815036,18.8846267 C8.61374172,18.6565684 8.58065512,18.3715002 8.66888853,18.029413 C8.51447989,17.7785497 8.42624784,17.5162871 8.40418898,17.2426175 C8.31595624,17.4250639 8.24426714,17.6018061 8.18912169,17.7728497 C8.13397555,17.9438926 8.08434531,18.1092327 8.04022827,18.2688727 L7.90787917,18.7135838 L7.47774323,18.7820007 C7.43362686,18.8276127 7.39502504,18.8960288 7.36193777,18.987252 C7.32884981,19.0784752 7.32333527,19.1468914 7.34539345,19.1925034 L7.47774323,19.5687969 L7.1468698,19.8766735 C7.10275275,19.9450911 7.04760797,20.0021045 6.98143274,20.0477164 C6.91525751,20.0933277 6.86011273,20.1389389 6.81599569,20.1845502 C6.77187932,20.4354141 6.71121999,20.6748718 6.63401567,20.9029295 C6.55681135,21.1309871 6.47409384,21.359042 6.38586043,21.5871003 C6.27556883,21.9519924 6.17079314,22.3054775 6.07153063,22.647564 C5.97226813,22.9896512 5.92263722,23.3317327 5.92263722,23.6738199 L5.79028811,24.118531 C5.67999584,24.3009774 5.54213355,24.4378098 5.37669582,24.529033 C5.21125808,24.6202562 5.05133761,24.7000752 4.89692897,24.7684927 C4.67634577,24.8597159 4.52193917,24.9509377 4.43370643,25.0421609 L4.33444393,25.486872 L3.83813344,25.5552889 C3.55137502,25.6237065 3.34733818,25.669317 3.22601749,25.6921227 C3.1046968,25.714929 2.96683383,25.7263318 2.81242519,25.7263318 L2.38228993,25.6921227 C2.1175897,25.4184538 1.90252376,25.2075031 1.73708603,25.0592652 C1.5716483,24.9110279 1.37864122,24.7798963 1.15805735,24.6658674 L0.959533021,24.3921992 C0.871299609,24.2097528 0.816154828,24.0444134 0.794096644,23.8961755 C0.77203846,23.7479375 0.738951185,23.5940009 0.69483414,23.4343602 C0.650717773,23.1378849 0.5845439,22.9326357 0.496310487,22.8186069 L0,22.3054789 Z M10.554868,13.4112627 C10.2460507,13.8673787 9.94826725,14.3462926 9.66150883,14.8480206 C9.81591747,14.8252149 9.96480886,14.8138121 10.1081884,14.8138121 C10.251568,14.8138121 10.4004593,14.8024093 10.554868,14.7796037 C11.3269098,14.7339917 12.0437954,14.6769784 12.7055463,14.6085608 C13.3672966,14.5401432 14.0841821,14.4261158 14.8562246,14.2664757 C14.6797578,13.4226613 14.4867501,12.5617552 14.277196,11.6837317 C14.0676412,10.8057088 13.8415468,9.92199711 13.5989048,9.03257142 L13.4334684,9.3746565 C12.8820091,9.99041329 12.3526167,10.6517708 11.8452751,11.3587508 C11.3379328,12.0657308 10.91883,12.7384918 10.5879553,13.3770542 L10.554868,13.4112627 Z M26.5360627,24.2895732 C26.4478293,24.19835 26.3706263,24.0900247 26.3044511,23.9645923 C26.2382759,23.8391607 26.1831311,23.6738213 26.1390147,23.4685686 C25.8301974,23.0808702 25.5875594,22.636164 25.4110926,22.1344367 C25.2346258,21.6327088 25.1133065,21.113885 25.0471312,20.5779486 C24.9809567,20.0420122 24.9699276,19.5003828 25.014044,18.9530436 C25.058161,18.4057044 25.135364,17.8925813 25.2456556,17.4136597 C25.3118308,17.185602 25.3669756,16.9461444 25.4110926,16.6952811 C25.5213842,16.2619707 25.6316744,15.8343681 25.741966,15.4124612 C25.8522576,14.9905536 26.0176927,14.6427706 26.2382765,14.369101 C26.1500431,14.1182371 26.1610722,13.8445717 26.2713638,13.5480964 C26.3816554,13.2516212 26.4919456,12.9779558 26.6022372,12.7270918 C26.6463543,12.6586742 26.6794409,12.5959595 26.7014997,12.5389447 C26.7235579,12.4819306 26.7456161,12.430618 26.7676743,12.3850067 C27.0323745,11.5868035 27.2915562,10.8171193 27.5452273,10.0759309 C27.7988984,9.33474246 28.047051,8.62207227 28.289693,7.93789861 C28.7308601,6.68357942 29.1554767,5.45208477 29.5635558,4.24337753 C29.9716356,3.03467028 30.3411075,1.74616227 30.671983,0.377814248 C30.8484498,0.240979796 31.0028557,0.149757295 31.1352055,0.104146045 C31.1793225,0.0813404199 31.2344673,0.0585347947 31.3006426,0.0357291695 C31.3668178,0.0129235443 31.4440207,0.00152073172 31.5322542,0.00152073172 C31.9954794,0.25238401 32.5414154,0.486140267 33.1700784,0.702795107 C33.7987413,0.919450648 34.3336482,1.02777597 34.7748153,1.02777597 L35.3373003,1.54090393 C35.6240587,1.88299111 35.872212,2.24217691 36.0817661,2.61847253 C36.2913202,2.99476815 36.3519802,3.47938418 36.2637467,4.07233534 C36.1313963,4.27758736 36.0211061,4.4030169 35.9328726,4.44862885 C35.8005229,4.97316244 35.657146,5.43497284 35.5027374,5.83407409 C35.3483287,6.23317533 35.1939228,6.61516675 35.0395142,6.98005955 C34.8630473,7.39056431 34.6976123,7.80106206 34.5432037,8.21156682 C34.3887957,8.62207087 34.2564473,9.12379112 34.1461557,9.71674158 C34.0138052,9.87638236 33.9310877,10.0132147 33.8980005,10.1272442 C33.8649125,10.2412731 33.8263114,10.3553005 33.7821943,10.4693293 C33.7380779,10.6061638 33.6829325,10.7486982 33.6167579,10.8969355 C33.5505827,11.0451735 33.4513216,11.1763051 33.3189718,11.2903339 C33.2307384,11.9973139 33.0983899,12.573151 32.9219231,13.0178642 C32.7454563,13.4625774 32.5689922,13.9015822 32.3925254,14.3348926 C32.0837088,15.1330958 31.7969544,15.9255849 31.5322542,16.7123853 C31.2675539,17.499185 31.113148,18.3942995 31.0690309,19.3977547 C31.3337312,19.3293371 31.5763692,19.2951287 31.796953,19.2951287 C32.0837115,19.2951287 32.3594367,19.3407399 32.624137,19.4319631 C33.4182377,19.0214584 34.2840146,18.7705986 35.2214949,18.6793754 C36.1589744,18.5881522 37.0909259,18.5311381 38.0173764,18.5083325 C38.7894189,18.5083325 39.5063045,18.4741248 40.1680547,18.4057072 C40.3886386,18.565348 40.5320154,18.6508684 40.5981907,18.6622712 C40.6643659,18.673674 40.7746561,18.6793754 40.9290641,18.6793754 L41.1275884,18.6793754 C41.1937637,18.6793754 41.2819957,18.6907782 41.3922873,18.7135838 C41.7011046,19.0328647 41.9988874,19.2552181 42.2856458,19.3806498 C42.5724049,19.5060821 42.8812168,19.6258109 43.2120922,19.7398398 C43.4988506,19.8538686 43.7800904,19.9735974 44.0558198,20.0990291 C44.3315491,20.2244607 44.6017598,20.3898008 44.8664601,20.5950528 L45.1642462,22.3396873 C45.340713,22.5905513 45.417916,22.7615921 45.3958578,22.8528153 C45.3958578,23.0352617 45.3517421,23.1948997 45.2635087,23.3317348 L45.3296833,23.7764459 C44.9105744,23.8676684 44.6348491,23.9645916 44.5024993,24.0672184 C44.3701489,24.1698444 44.2267721,24.3009753 44.0723634,24.4606161 C43.829722,24.4834217 43.5981125,24.4948245 43.3775293,24.4948245 C42.9363622,24.4948245 42.4841728,24.5632407 42.0209476,24.7000759 C41.3591967,24.4492119 40.631282,24.3237823 39.8371813,24.3237823 C39.5283647,24.3237823 39.2140376,24.3351845 38.8941919,24.3579908 C38.5743456,24.3807964 38.2600191,24.4150048 37.9512019,24.4606161 C37.6203264,24.5062273 37.2894564,24.5461372 36.9585809,24.5803456 C36.6277061,24.6145548 36.2968354,24.631659 35.9659606,24.631659 C35.7012604,24.6772702 35.5137671,24.7114787 35.4034749,24.7342843 C35.2931833,24.7570899 35.182893,24.7912984 35.0726014,24.8369096 C34.3226178,25.0877736 33.5119856,25.3386334 32.6406806,25.5894973 C31.7693756,25.8403613 30.8925695,25.9657916 30.0102354,25.9657916 C28.7087931,25.9657916 27.6610368,25.6237093 26.8669361,24.9395356 C26.7787027,24.7342836 26.7125288,24.5974505 26.6684125,24.529033 C26.6242954,24.4606161 26.5801791,24.3807964 26.5360627,24.2895732 Z M45.2304214,22.3054789 L45.6605567,21.9633938 L45.693644,21.2450145 C46.2451033,19.8538609 46.8130968,18.5197416 47.3976434,17.2426175 C47.9821893,15.9654927 48.5942999,14.6541791 49.2339919,13.3086367 C49.4325169,12.875327 49.6365538,12.4420229 49.8461079,12.0087125 C50.055662,11.5754028 50.2596988,11.1306966 50.4582238,10.6745806 C50.4361657,10.5833574 50.4251366,10.4864342 50.4251366,10.3838082 C50.4251366,10.2811815 50.4471947,10.1614534 50.4913118,10.0246182 C50.8001284,9.56850222 51.0482809,9.15800447 51.2357768,8.79311166 C51.4232728,8.42821885 51.6052514,8.05192884 51.7817182,7.66423041 C51.9802439,7.2081144 52.1953092,6.7520054 52.4269222,6.2958894 C52.6585344,5.83977339 52.9508033,5.3950665 53.303737,4.96175682 L53.5353486,4.61967174 L53.8993093,4.65388018 C53.9875427,4.60826823 54.0812893,4.56835909 54.1805518,4.53414995 C54.279815,4.49994151 54.4066482,4.48283729 54.5610568,4.48283729 L55.1566292,4.5854626 C55.8845546,4.24337612 56.5297518,3.74735728 57.0922395,3.09739206 C57.6547279,2.44742684 58.2227214,1.66633978 58.7962389,0.754107764 L59.1932869,0.172562921 L59.7226847,0.514647999 C59.832977,0.583065575 60.0094411,0.651482451 60.2520825,0.719899326 C60.4947245,0.788316902 60.7483916,0.86813589 61.0130918,0.959359091 C61.4763171,1.07338792 61.9285064,1.20451956 62.3696735,1.35275753 C62.8108406,1.50099479 63.1527404,1.70054261 63.3953818,1.95140659 L63.5608188,2.25928323 C63.6049352,2.51014721 63.643537,2.73820136 63.6766243,2.94345339 C63.7097122,3.14870612 63.7483134,3.35395464 63.7924304,3.55920737 C63.8806638,4.038129 63.9578668,4.51134222 64.024042,4.97886104 C64.0902166,5.44637986 64.1343329,5.96520363 64.1563911,6.53534846 C64.2666827,6.99146447 64.3714584,7.45327558 64.4707209,7.92079439 C64.5699834,8.38831321 64.66373,8.85012362 64.7519634,9.30623963 C64.8622557,9.96760766 64.9835744,10.6004589 65.1159248,11.2048128 C65.2482746,11.8091661 65.4247387,12.3850039 65.6453226,12.9323431 C65.8659058,12.9323431 65.9982542,12.943746 66.0423706,12.9665516 C66.3070708,12.8525228 66.6158833,12.7841059 66.968817,12.7613003 L67.3989522,12.7270918 L67.531302,13.1375945 C67.5754184,13.2060113 67.6305639,13.2744282 67.6967384,13.3428451 C67.7629136,13.4112627 67.8401166,13.4796788 67.92835,13.5480964 C68.2812837,13.570902 68.5404653,13.6450203 68.705903,13.770452 C68.8713407,13.8958836 69.0092037,14.0156124 69.1194953,14.1296413 C69.1636117,14.1752532 69.2187571,14.2265652 69.2849317,14.2835799 C69.3511069,14.340594 69.4062524,14.3805038 69.4503687,14.4033095 L70.0459411,14.6427692 L69.7150676,15.292731 C69.4724256,15.7716533 69.1029537,16.2391651 68.6066412,16.6952811 C68.110328,17.1513971 67.5533636,17.5276871 66.9357297,17.8241624 C66.9798461,17.9838024 67.0074188,18.1320383 67.0184479,18.2688727 C67.029477,18.4057079 67.0570497,18.5653459 67.1011661,18.7477923 C67.1893995,19.2039083 67.2610879,19.6771215 67.3162341,20.1674459 C67.3713802,20.6577711 67.3658657,21.165192 67.2996904,21.6897256 C67.0791072,22.2826761 66.8199249,22.8129034 66.5221374,23.2804222 C66.2243499,23.747941 65.8714217,24.1698416 65.4633419,24.5461372 C65.0552628,24.9224328 64.5975589,25.2303066 64.0902166,25.4697678 C63.5828743,25.7092283 63.0534819,25.8403599 62.5020233,25.8631655 C62.193206,25.794748 61.9671117,25.714929 61.8237321,25.6237058 C61.6803532,25.5324826 61.5535194,25.4412608 61.4432278,25.3500376 C61.2667609,25.2132031 61.1233834,25.1219813 61.0130918,25.0763694 L60.5829566,24.8711188 L60.7153057,24.3579908 C60.7814809,24.1755444 60.7759663,24.0159057 60.698762,23.8790713 C60.6215577,23.7422361 60.4616372,23.5597925 60.2189952,23.3317348 C60.1307618,23.2633173 60.0535588,23.1891997 59.9873836,23.1093793 C59.921209,23.0295589 59.8440054,22.9440385 59.755772,22.8528153 L59.0940251,22.0660191 L60.1859079,21.7581425 C60.8476588,21.5756961 61.2888191,21.3419405 61.5094023,21.0568681 C61.7299862,20.771795 61.8182182,20.2643741 61.7741012,19.5345884 C61.2226425,19.4205596 60.7704532,19.4034554 60.4175195,19.4832758 C60.0645859,19.5630962 59.7116576,19.6486166 59.358724,19.7398398 C58.8513817,19.8766742 58.3550766,19.9964031 57.8697925,20.0990291 C57.3845091,20.2016551 56.8551167,20.2529677 56.2815992,20.2529677 C55.9066074,20.2529677 55.5095635,20.2187593 55.0904546,20.1503417 L54.7264939,20.1161333 L54.6272314,19.7398398 C54.6272314,19.6942278 54.5996587,19.6429159 54.5445132,19.5859011 L54.3956198,19.4319631 C54.2853282,19.295128 54.1529798,19.1126844 53.9985718,18.8846267 C53.8441632,18.6565684 53.8110759,18.3715002 53.8993093,18.029413 C53.7449013,17.7785497 53.6566693,17.5162871 53.6346104,17.2426175 C53.546377,17.4250639 53.4746886,17.6018061 53.4195431,17.7728497 C53.364397,17.9438926 53.3147661,18.1092327 53.2706497,18.2688727 L53.1383006,18.7135838 L52.7081647,18.7820007 C52.6640476,18.8276127 52.6254465,18.8960288 52.5923585,18.987252 C52.5592713,19.0784752 52.5537567,19.1468914 52.5758149,19.1925034 L52.7081647,19.5687969 L52.3772912,19.8766735 C52.3331742,19.9450911 52.2780294,20.0021045 52.2118542,20.0477164 C52.145679,20.0933277 52.0905342,20.1389389 52.0464171,20.1845502 C52.0023008,20.4354141 51.9416414,20.6748718 51.8644371,20.9029295 C51.7872328,21.1309871 51.7045153,21.359042 51.6162819,21.5871003 C51.5059903,21.9519924 51.4012146,22.3054775 51.3019521,22.647564 C51.2026889,22.9896512 51.1530587,23.3317327 51.1530587,23.6738199 L51.0207096,24.118531 C50.9104173,24.3009774 50.772555,24.4378098 50.6071173,24.529033 C50.4416795,24.6202562 50.281759,24.7000752 50.1273504,24.7684927 C49.9067672,24.8597159 49.7523606,24.9509377 49.6641272,25.0421609 L49.5648654,25.486872 L49.0685549,25.5552889 C48.7817965,25.6237065 48.5777596,25.669317 48.4564389,25.6921227 C48.3351176,25.714929 48.1972553,25.7263318 48.0428466,25.7263318 L47.6127114,25.6921227 C47.3480111,25.4184538 47.1329452,25.2075031 46.9675075,25.0592652 C46.8020697,24.9110279 46.609062,24.7798963 46.3884788,24.6658674 L46.1899545,24.3921992 C46.101721,24.2097528 46.0465763,24.0444134 46.0245181,23.8961755 C46.0024592,23.7479375 45.9693726,23.5940009 45.9252556,23.4343602 C45.8811392,23.1378849 45.8149647,22.9326357 45.7267319,22.8186069 L45.2304214,22.3054789 Z M55.7852894,13.4112627 C55.4764721,13.8673787 55.1786887,14.3462926 54.8919303,14.8480206 C55.0463389,14.8252149 55.1952303,14.8138121 55.3386098,14.8138121 C55.4819887,14.8138121 55.6308808,14.8024093 55.7852894,14.7796037 C56.5573313,14.7339917 57.2742168,14.6769784 57.9359677,14.6085608 C58.597718,14.5401432 59.3146035,14.4261158 60.0866461,14.2664757 C59.9101792,13.4226613 59.7171715,12.5617552 59.5076174,11.6837317 C59.2980626,10.8057088 59.0719683,9.92199711 58.8293262,9.03257142 L58.6638892,9.3746565 C58.1124305,9.99041329 57.5830382,10.6517708 57.0756959,11.3587508 C56.5683543,12.0657308 56.1492515,12.7384918 55.8183767,13.3770542 L55.7852894,13.4112627 Z M69.6488931,10.1272442 C69.7150683,9.78515706 69.759184,9.50579025 69.7812422,9.28913541 C69.803301,9.07247987 69.7260974,8.83872431 69.5496313,8.58786033 C69.637864,8.22296753 69.7095531,7.93789931 69.7646985,7.73264729 C69.8198447,7.52739526 69.8253592,7.24232705 69.7812422,6.87743424 C69.9797679,6.28448308 70.2830652,5.78276353 70.691145,5.37225877 C71.0992241,4.96175472 71.5458989,4.61397174 72.031183,4.32889862 C72.5164664,4.0438262 73.0238013,3.80436924 73.5532017,3.61052003 C74.0826022,3.41667081 74.5789073,3.25133073 75.0421325,3.11449628 C75.0421325,3.02327307 74.9980168,2.97766253 74.9097834,2.97766253 C74.82155,2.97766253 74.7994918,2.92064846 74.8436089,2.80661964 C76.0347596,2.57856128 77.2314073,2.24788252 78.4335871,1.81457214 C79.6357669,1.38126246 80.8655018,0.993569631 82.1228278,0.651482451 C83.3801537,0.309395271 84.670548,0.0984453393 85.9940492,0.0186249506 C87.3175497,-0.0611954381 88.7072051,0.115546756 90.163056,0.548857137 C90.2512895,0.822526741 90.3726088,1.08478933 90.5270174,1.33565331 C90.6814254,1.58651659 90.8413465,1.83167566 91.0067843,2.07113612 C91.1722213,2.31059729 91.3211134,2.54435284 91.4534632,2.7724112 C91.5858136,3.00046885 91.6630166,3.23992651 91.6850748,3.49078979 C91.949775,3.74165377 92.164841,4.00961777 92.3302787,4.29469018 C92.4957157,4.5797626 92.5232885,4.96175402 92.4129969,5.44067565 C92.1703548,5.62312205 91.9166877,5.80556635 91.6519875,5.98801206 C91.3872873,6.17045846 91.111562,6.34149995 90.8248036,6.50114002 C89.8321779,6.25027675 88.8395671,6.15905494 87.8469413,6.22747182 C86.8543156,6.2958894 85.9609653,6.37570838 85.1668646,6.46693159 C84.9242232,6.19326198 84.6374688,6.06213104 84.3065934,6.07353385 C83.9757186,6.08493666 83.6283042,6.14195003 83.2643415,6.24457604 C82.9003788,6.34720275 82.541936,6.44982667 82.1890023,6.55245338 C81.8360687,6.65507939 81.5051986,6.68358573 81.196382,6.63797448 C80.95374,6.86603213 80.6338983,7.0199694 80.2368483,7.09978979 C79.8397976,7.17960947 79.4206955,7.24232494 78.9795285,7.28793619 C78.9574703,7.40196502 78.9795285,7.48178471 79.045703,7.52739596 C79.1118783,7.57300791 79.1229073,7.66422971 79.078791,7.80106416 C79.2331989,8.00631619 79.4427503,8.14885065 79.7074506,8.22867104 C79.9721508,8.30849142 80.2423615,8.38260901 80.5180909,8.45102658 C80.7938202,8.51944346 81.0419727,8.61636666 81.2625566,8.741799 C81.4831398,8.86723064 81.6265173,9.06677846 81.6926918,9.34044807 C82.0897425,9.36325369 82.4316417,9.47157971 82.7184001,9.66542893 C83.0051585,9.85927814 83.2477972,10.0930344 83.4463222,10.3667033 C83.6448472,10.6403729 83.7882247,10.9311425 83.8764581,11.2390213 C83.9646915,11.5468993 83.9977781,11.8262661 83.9757199,12.0771301 C84.0639534,12.3051877 84.1577,12.3964095 84.2569625,12.3507983 C84.356225,12.3051863 84.4720298,12.3622004 84.6043795,12.5218405 C84.6926129,12.8639277 84.8966498,13.2231135 85.2164962,13.5994091 C85.5363419,13.9757047 85.7844951,14.3805017 85.9609619,14.8138121 C86.0050783,15.4979858 86.0436801,16.1137335 86.0767674,16.6610727 C86.1098546,17.2084112 86.016108,17.7443399 85.7955248,18.2688727 C85.420533,19.272328 84.8801116,20.1731438 84.1742443,20.9713463 C83.468377,21.7695495 82.6687739,22.4708169 81.7754107,23.0751709 C80.8820475,23.6795241 79.9390669,24.20405 78.9464412,24.6487632 C77.9538155,25.0934757 76.9722338,25.464065 76.0016662,25.7605402 C75.9134328,25.7377346 75.8086571,25.7377346 75.6873364,25.7605402 C75.5660151,25.7833459 75.538443,25.7149297 75.6046176,25.5552889 C75.4060926,25.7377353 75.1799982,25.8517627 74.9263271,25.897374 C74.6726559,25.9429859 74.3969307,25.9600902 74.0991431,25.9486866 C73.801355,25.9372838 73.5035722,25.9201796 73.205784,25.897374 C72.9079965,25.8745684 72.6157276,25.8859712 72.3289692,25.9315824 C72.1525023,25.749136 71.9925819,25.5666924 71.8492023,25.384246 C71.7058234,25.2017996 71.5900187,24.9851483 71.5017852,24.7342843 C71.3914937,24.7114787 71.3418627,24.6373611 71.3528918,24.5119288 C71.3639209,24.3864971 71.3142907,24.3237823 71.2039991,24.3237823 C71.2039991,24.2325591 71.2150282,24.1641423 71.2370864,24.118531 L71.3032609,23.9816966 C71.3914943,23.9132797 71.4300962,23.861967 71.4190671,23.8277586 C71.4080373,23.7935495 71.3749507,23.7593417 71.3198046,23.7251326 C71.2646591,23.6909241 71.2095136,23.6510143 71.1543682,23.6054031 C71.099222,23.5597911 71.0826784,23.5027777 71.1047366,23.4343602 C71.2150289,23.2291081 71.25363,22.9839498 71.2205427,22.6988773 C71.1874548,22.4138042 71.1598827,22.1230353 71.1378245,21.8265594 C71.1157657,21.5300842 71.1378239,21.2507173 71.2039991,20.9884506 C71.2701736,20.7261838 71.4576668,20.503831 71.7664841,20.3213846 C72.6708764,20.4126078 73.525625,20.3669966 74.3307548,20.1845502 C75.1358846,20.0021038 75.8968858,19.751244 76.6137822,19.4319631 C77.3306786,19.1126816 78.0144775,18.7648986 78.6651987,18.388603 C79.3159198,18.0123074 79.9500879,17.6645237 80.5677218,17.3452428 C80.633897,17.1171852 80.7386727,16.9233388 80.8820516,16.763698 C81.0254311,16.6040572 81.1743225,16.4501206 81.3287311,16.3018827 C81.4831398,16.1536454 81.6265166,15.9940067 81.7588671,15.8229631 C81.8912169,15.6519202 81.990478,15.4409696 82.0566532,15.1901056 C82.0787114,15.0988824 82.0787114,15.0304663 82.0566532,14.9848543 C82.034595,14.9392431 82.0015078,14.8993332 81.9573907,14.8651248 C81.9132744,14.8309163 81.869158,14.7910065 81.8250416,14.7453945 C81.7809246,14.6997833 81.7588671,14.6313671 81.7588671,14.5401439 C81.6926918,14.5173383 81.6320325,14.4945327 81.5768864,14.471727 C81.5217402,14.4489207 81.47211,14.4375179 81.427993,14.4375179 C80.8544761,14.1410427 80.2478808,13.8901829 79.6081887,13.6849309 C78.968496,13.4796781 78.4280746,13.251624 77.9869075,13.00076 C77.7222073,13.1832064 77.4575111,13.2288177 77.1928109,13.1375945 C76.9281106,13.0463713 76.6082697,12.9551495 76.2332778,12.8639263 C75.3068267,12.8183143 74.4300206,12.7270925 73.6028327,12.5902581 C72.7756447,12.4534229 71.9760409,12.2139659 71.2039991,11.8718788 C71.159882,11.7350443 71.1047373,11.6153155 71.038562,11.5126895 C70.9723868,11.4100635 70.8179809,11.3815564 70.5753388,11.4271677 C70.4209309,11.19911 70.2610097,10.9881594 70.0955727,10.7943102 C69.9301349,10.600461 69.7812429,10.3781075 69.6488931,10.1272442 Z M89.4020467,19.2951287 L89.4516783,19.0898774 C89.4627074,19.0442661 89.4241055,18.987252 89.3358721,18.9188352 C89.2917558,18.7591944 89.3248424,18.6565698 89.4351346,18.6109585 L89.7660081,18.4741241 C89.8762997,17.1057761 90.1023947,15.8571779 90.4442986,14.7282903 C90.7862031,13.5994035 91.1611895,12.4990405 91.5692693,11.4271677 C91.9773484,10.3552956 92.3854221,9.2777375 92.7935012,8.1944626 C93.201581,7.11118699 93.5379656,5.9310043 93.8026658,4.65388018 C94.0894243,4.35740425 94.3265484,4.00391986 94.5140443,3.59341581 C94.7015402,3.18291105 94.8890334,2.76671189 95.0765293,2.34480432 C95.2640252,1.92289746 95.4846057,1.51810041 95.7382762,1.13040198 C95.9919473,0.74270355 96.339361,0.423426899 96.7805281,0.172562921 C96.9790538,0.195368546 97.1610324,0.23527839 97.3264695,0.292293153 C97.4919072,0.349307216 97.6518284,0.412022686 97.8062363,0.480439561 C97.960645,0.548857137 98.12608,0.6058712 98.3025468,0.651482451 C98.4790136,0.697093701 98.6665068,0.719899326 98.8650319,0.719899326 C98.9532653,0.833928153 99.0304682,0.965059797 99.0966435,1.11329776 C99.1628187,1.26153503 99.2510507,1.39266667 99.3613423,1.5066955 L99.9569147,1.40407018 C100.243674,1.65493346 100.497341,1.96850871 100.717924,2.34480432 C100.938508,2.72109994 101.092914,3.10879277 101.181147,3.50789401 C101.269381,3.90699595 101.258352,4.29468878 101.14806,4.6709844 C101.037768,5.04728002 100.784101,5.33804964 100.387051,5.54330166 C100.409109,5.68013612 100.409109,5.78276073 100.387051,5.8511783 C100.364992,5.91959588 100.33742,5.98231065 100.304332,6.03932541 C100.271244,6.09633948 100.254701,6.15335354 100.254701,6.2103676 C100.254701,6.26738237 100.298817,6.34149995 100.387051,6.43272315 C100.144409,6.63797518 99.9238287,6.89453706 99.7253037,7.2024151 C99.526778,7.51029314 99.361343,7.8352712 99.2289932,8.17735768 C99.0966428,8.51944486 98.9918671,8.86152713 98.9146628,9.20361361 C98.8374591,9.54570079 98.7878282,9.86497744 98.76577,10.1614527 C99.4054621,9.47727831 100.155435,8.83872571 101.01571,8.24577525 C101.875986,7.6528241 102.625959,7.09409048 103.265651,6.5695576 C103.772993,6.20466479 104.219668,5.85688111 104.605689,5.52619744 C104.99171,5.19551308 105.38324,4.88763994 105.78029,4.60256682 C106.177341,4.31749441 106.590928,4.04382901 107.021066,3.78156221 C107.451204,3.51929612 107.88685,3.2285265 108.328017,2.90924495 C108.5486,2.81802175 108.71955,2.79521682 108.840871,2.84082807 C108.962192,2.88643932 109.077997,2.94345339 109.188288,3.01187096 C109.210346,2.85223019 109.17726,2.75530698 109.089026,2.72109854 C109.000793,2.6868894 108.967706,2.57856338 108.989764,2.39611698 C109.364756,2.28208815 109.701141,2.1452558 109.998929,1.98561503 C110.296717,1.82597425 110.611043,1.67773909 110.941919,1.54090393 C111.162502,1.79176791 111.383082,2.05973191 111.603665,2.34480432 C111.824249,2.62987674 112.122033,2.78381401 112.497025,2.80661964 C112.629374,3.10309486 112.789295,3.32544831 112.976791,3.47368557 C113.164287,3.62192354 113.351781,3.76445729 113.539276,3.90129245 C113.726772,4.0381269 113.886693,4.20346698 114.019043,4.3973162 C114.151393,4.59116541 114.228596,4.89333784 114.250654,5.3038419 C114.162421,5.4862883 114.057646,5.68583612 113.936324,5.90249096 C113.815004,6.1191465 113.710228,6.3871105 113.621995,6.70639135 C113.092594,7.20811931 112.557687,7.64712409 112.017258,8.02341971 C111.476828,8.39971533 110.925378,8.75890112 110.36289,9.1009883 C109.800401,9.44307548 109.226893,9.79655987 108.642347,10.1614527 C108.057801,10.5263455 107.467749,10.948246 106.872173,11.4271677 C106.739823,11.6324204 106.574388,11.814864 106.375863,11.9745041 C106.177337,12.1341449 105.973301,12.2880814 105.763746,12.4363194 C105.554192,12.5845574 105.35567,12.7384939 105.168174,12.8981347 C104.980678,13.0577748 104.831787,13.2516212 104.721495,13.4796795 C104.633261,13.4796795 104.556058,13.485381 104.489884,13.4967838 C104.423708,13.5081866 104.346505,13.5252908 104.258272,13.5480964 C104.170039,13.7305428 104.043205,13.8787787 103.877767,13.9928075 C103.712329,14.1068363 103.596525,14.2550715 103.53035,14.4375179 C103.9274,15.3269443 104.445764,15.9997053 105.085456,16.4558213 C105.725148,16.9119373 106.442034,17.2426161 107.236134,17.4478681 C108.030235,17.6531209 108.890497,17.7671476 109.816948,17.7899539 C110.743399,17.8127595 111.702923,17.8241624 112.695548,17.8241624 C112.805841,17.8013567 112.855471,17.7386413 112.844442,17.6360152 C112.833413,17.5333892 112.894072,17.4934794 113.026422,17.5162857 C113.357297,17.6303145 113.633022,17.7671469 113.853606,17.9267877 C114.074189,18.0864284 114.283741,18.2574692 114.482266,18.4399156 C114.680791,18.622362 114.873799,18.810507 115.061295,19.0043563 C115.248791,19.1982055 115.463856,19.3977533 115.706498,19.6030053 C115.662381,20.6748781 115.359084,21.547187 114.796596,22.2199578 C114.234108,22.8927287 113.48965,23.4343581 112.563199,23.8448628 C111.283815,23.8904741 110.169885,23.8562663 109.221376,23.7422368 C108.272867,23.628208 107.335401,23.3773482 106.40895,22.9896498 C106.342775,22.9668434 106.282116,22.8984273 106.22697,22.7843984 C106.171823,22.6703696 106.122193,22.5905499 106.078077,22.5449387 C105.90161,22.4309099 105.703088,22.3852986 105.482504,22.4081042 C105.261921,22.4309106 105.074427,22.4081049 104.920019,22.3396873 C104.721494,22.2484641 104.396138,22.0432149 103.943942,21.7239341 C103.491745,21.4046532 103.078158,21.1081822 102.703166,20.8345126 C102.239941,20.4468142 101.793265,20.0648227 101.363128,19.6885271 C100.93299,19.3122315 100.552489,18.8960316 100.221614,18.4399156 C100.155439,18.3258868 100.061692,18.2688727 99.940371,18.2688727 C99.8190503,18.2688727 99.7032455,18.234665 99.5929539,18.1662474 C98.8209114,18.6679747 98.1757143,19.2894238 97.6573436,20.0306122 C97.1389722,20.7718006 96.6371519,21.5243806 96.1518685,22.2883747 C95.6665851,23.0523687 95.1537357,23.770741 94.6133061,24.4435119 C94.0728766,25.1162827 93.3945928,25.6351072 92.5784333,26 C92.3357919,26 92.1262405,25.9600902 91.9497737,25.8802698 C91.7733068,25.8004494 91.6078718,25.6978248 91.4534632,25.5723931 C91.2990552,25.4469615 91.1446486,25.3272327 90.99024,25.2132038 C90.835832,25.099175 90.6593679,25.0193553 90.4608422,24.9737441 C90.4608422,24.6544625 90.4001829,24.3522908 90.2788622,24.0672184 C90.1575408,23.7821452 90.0362222,23.5198827 89.9149008,23.2804222 C89.7935801,23.040961 89.7053481,22.8072055 89.6502019,22.5791471 C89.5950565,22.3510895 89.6557158,22.1230346 89.8321826,21.894977 C89.5895406,21.6897242 89.3579317,21.5186834 89.1373478,21.381849 C89.2917564,21.2222082 89.3634449,21.073973 89.3524158,20.9371379 C89.3413867,20.8003034 89.3027855,20.6634704 89.2366103,20.5266359 C89.1704351,20.3898008 89.1208048,20.247267 89.0877169,20.0990291 C89.0546296,19.9507911 89.0932314,19.7854517 89.203523,19.6030053 C89.2917564,19.5801997 89.3303576,19.5345884 89.3193285,19.4661716 C89.3082994,19.397754 89.3358721,19.3407406 89.4020467,19.2951287 Z M114.18448,22.3054789 L114.614616,21.9633938 L114.647703,21.2450145 C115.199162,19.8538609 115.767156,18.5197416 116.351702,17.2426175 C116.936248,15.9654927 117.548358,14.6541791 118.18805,13.3086367 C118.386575,12.875327 118.590612,12.4420229 118.800167,12.0087125 C119.009721,11.5754028 119.213758,11.1306966 119.412283,10.6745806 C119.390225,10.5833574 119.379196,10.4864342 119.379196,10.3838082 C119.379196,10.2811815 119.401254,10.1614534 119.44537,10.0246182 C119.754187,9.56850222 120.00234,9.15800447 120.189836,8.79311166 C120.377332,8.42821885 120.55931,8.05192884 120.735777,7.66423041 C120.934302,7.2081144 121.149368,6.7520054 121.38098,6.2958894 C121.612593,5.83977339 121.904862,5.3950665 122.257796,4.96175682 L122.489408,4.61967174 L122.853368,4.65388018 C122.941602,4.60826823 123.035348,4.56835909 123.134611,4.53414995 C123.233873,4.49994151 123.360707,4.48283729 123.515115,4.48283729 L124.110688,4.5854626 C124.838614,4.24337612 125.483811,3.74735728 126.046298,3.09739206 C126.608786,2.44742684 127.17678,1.66633978 127.750297,0.754107764 L128.147346,0.172562921 L128.676744,0.514647999 C128.787035,0.583065575 128.963499,0.651482451 129.206141,0.719899326 C129.448783,0.788316902 129.702451,0.86813589 129.967151,0.959359091 C130.430376,1.07338792 130.882565,1.20451956 131.323732,1.35275753 C131.7649,1.50099479 132.106799,1.70054261 132.349441,1.95140659 L132.514877,2.25928323 C132.558994,2.51014721 132.597595,2.73820136 132.630683,2.94345339 C132.66377,3.14870612 132.702372,3.35395464 132.746489,3.55920737 C132.834722,4.038129 132.911925,4.51134222 132.9781,4.97886104 C133.044276,5.44637986 133.088391,5.96520363 133.11045,6.53534846 C133.220742,6.99146447 133.325517,7.45327558 133.42478,7.92079439 C133.524042,8.38831321 133.617789,8.85012362 133.706022,9.30623963 C133.816314,9.96760766 133.937633,10.6004589 134.069983,11.2048128 C134.202334,11.8091661 134.378798,12.3850039 134.599381,12.9323431 C134.819965,12.9323431 134.952312,12.943746 134.99643,12.9665516 C135.26113,12.8525228 135.569942,12.7841059 135.922875,12.7613003 L136.353011,12.7270918 L136.48536,13.1375945 C136.529477,13.2060113 136.584622,13.2744282 136.650797,13.3428451 C136.716973,13.4112627 136.794176,13.4796788 136.882409,13.5480964 C137.235343,13.570902 137.494524,13.6450203 137.659962,13.770452 C137.8254,13.8958836 137.963262,14.0156124 138.073554,14.1296413 C138.117671,14.1752532 138.172815,14.2265652 138.238991,14.2835799 C138.305166,14.340594 138.360311,14.3805038 138.404428,14.4033095 L139,14.6427692 L138.669127,15.292731 C138.426485,15.7716533 138.057013,16.2391651 137.560699,16.6952811 C137.064387,17.1513971 136.507422,17.5276871 135.889788,17.8241624 C135.933905,17.9838024 135.961477,18.1320383 135.972506,18.2688727 C135.983536,18.4057079 136.011108,18.5653459 136.055225,18.7477923 C136.143458,19.2039083 136.215147,19.6771215 136.270293,20.1674459 C136.325438,20.6577711 136.319924,21.165192 136.253749,21.6897256 C136.033165,22.2826761 135.773984,22.8129034 135.476196,23.2804222 C135.178408,23.747941 134.82548,24.1698416 134.417401,24.5461372 C134.009321,24.9224328 133.551617,25.2303066 133.044275,25.4697678 C132.536933,25.7092283 132.007541,25.8403599 131.456082,25.8631655 C131.147265,25.794748 130.92117,25.714929 130.777791,25.6237058 C130.634411,25.5324826 130.507578,25.4412608 130.397286,25.3500376 C130.220819,25.2132031 130.077442,25.1219813 129.967151,25.0763694 L129.537015,24.8711188 L129.669365,24.3579908 C129.735539,24.1755444 129.730025,24.0159057 129.652821,23.8790713 C129.575617,23.7422361 129.415695,23.5597925 129.173054,23.3317348 C129.084821,23.2633173 129.007618,23.1891997 128.941443,23.1093793 C128.875267,23.0295589 128.798064,22.9440385 128.709831,22.8528153 L128.048083,22.0660191 L129.139967,21.7581425 C129.801717,21.5756961 130.242877,21.3419405 130.463461,21.0568681 C130.684044,20.771795 130.772276,20.2643741 130.72816,19.5345884 C130.176701,19.4205596 129.724511,19.4034554 129.371578,19.4832758 C129.018645,19.5630962 128.665716,19.6486166 128.312783,19.7398398 C127.805441,19.8766742 127.309135,19.9964031 126.823851,20.0990291 C126.338567,20.2016551 125.809175,20.2529677 125.235658,20.2529677 C124.860666,20.2529677 124.463622,20.2187593 124.044513,20.1503417 L123.680552,20.1161333 L123.58129,19.7398398 C123.58129,19.6942278 123.553718,19.6429159 123.498571,19.5859011 L123.349679,19.4319631 C123.239387,19.295128 123.107039,19.1126844 122.95263,18.8846267 C122.798222,18.6565684 122.765135,18.3715002 122.853368,18.029413 C122.69896,17.7785497 122.610728,17.5162871 122.588669,17.2426175 C122.500436,17.4250639 122.428748,17.6018061 122.373601,17.7728497 C122.318455,17.9438926 122.268825,18.1092327 122.224708,18.2688727 L122.092359,18.7135838 L121.662223,18.7820007 C121.618107,18.8276127 121.579505,18.8960288 121.546417,18.987252 C121.51333,19.0784752 121.507816,19.1468914 121.529874,19.1925034 L121.662223,19.5687969 L121.331349,19.8766735 C121.287233,19.9450911 121.232088,20.0021045 121.165912,20.0477164 C121.099738,20.0933277 121.044592,20.1389389 121.000476,20.1845502 C120.956359,20.4354141 120.8957,20.6748718 120.818495,20.9029295 C120.741291,21.1309871 120.658574,21.359042 120.57034,21.5871003 C120.460049,21.9519924 120.355273,22.3054775 120.25601,22.647564 C120.156748,22.9896512 120.107117,23.3317327 120.107117,23.6738199 L119.974768,24.118531 C119.864476,24.3009774 119.726613,24.4378098 119.561176,24.529033 C119.395738,24.6202562 119.235817,24.7000752 119.081409,24.7684927 C118.860825,24.8597159 118.70642,24.9509377 118.618186,25.0421609 L118.518924,25.486872 L118.022614,25.5552889 C117.735855,25.6237065 117.531819,25.669317 117.410497,25.6921227 C117.289177,25.714929 117.151314,25.7263318 116.996906,25.7263318 L116.56677,25.6921227 C116.302069,25.4184538 116.087004,25.2075031 115.921566,25.0592652 C115.756129,24.9110279 115.563121,24.7798963 115.342537,24.6658674 L115.144013,24.3921992 C115.05578,24.2097528 115.000635,24.0444134 114.978576,23.8961755 C114.956518,23.7479375 114.923431,23.5940009 114.879315,23.4343602 C114.835197,23.1378849 114.769024,22.9326357 114.68079,22.8186069 L114.18448,22.3054789 Z M124.739348,13.4112627 C124.430531,13.8673787 124.132748,14.3462926 123.845989,14.8480206 C124.000397,14.8252149 124.149289,14.8138121 124.292668,14.8138121 C124.436048,14.8138121 124.584939,14.8024093 124.739348,14.7796037 C125.51139,14.7339917 126.228276,14.6769784 126.890026,14.6085608 C127.551777,14.5401432 128.268662,14.4261158 129.040704,14.2664757 C128.864238,13.4226613 128.67123,12.5617552 128.461676,11.6837317 C128.252122,10.8057088 128.026027,9.92199711 127.783385,9.03257142 L127.617948,9.3746565 C127.066489,9.99041329 126.537097,10.6517708 126.029755,11.3587508 C125.522413,12.0657308 125.10331,12.7384918 124.772435,13.3770542 L124.739348,13.4112627 Z" id="Logo"></path>
        </g>
    </g>
</svg>
