<?xml version="1.0" encoding="UTF-8"?>
<svg width="15px" height="14px" viewBox="0 0 15 14" version="1.1" xmlns="http://www.w3.org/2000/svg" xmlns:xlink="http://www.w3.org/1999/xlink">
    <!-- Generator: Sketch 46.2 (44496) - http://www.bohemiancoding.com/sketch -->
    <title>Message</title>
    <desc>Created with Sketch.</desc>
    <defs></defs>
    <g id="Forms" stroke="none" stroke-width="1" fill="none" fill-rule="evenodd">
        <g transform="translate(-864.000000, -2776.000000)" id="Message" fill="#A3A3A3">
            <path d="M871.890937,2787.375 L876.178125,2787.375 C876.925669,2787.37733 877.643451,2787.10179 878.172926,2786.60926 C878.702401,2786.11672 879.000004,2785.44772 879,2784.75001 L879,2778.62501 C879.000004,2777.9273 878.702401,2777.25829 878.172926,2776.76576 C877.643451,2776.27322 876.925669,2775.99769 876.178125,2776.00001 L866.821875,2776.00001 C866.074331,2775.99769 865.356549,2776.27322 864.827074,2776.76576 C864.297599,2777.25829 863.999996,2777.9273 864,2778.62501 L864,2784.75001 C863.999996,2785.44772 864.297599,2786.11672 864.827074,2786.60926 C865.356549,2787.10179 866.074331,2787.37733 866.821875,2787.375 L867.75,2787.375 L867.75,2789.11713 C867.747749,2789.35055 867.845526,2789.57514 868.021586,2789.74094 C868.197646,2789.90674 868.437391,2790.00001 868.6875,2790 L867.75,2790 C868.353392,2789.9725 868.937111,2789.7909 869.4375,2789.475 L871.6875,2787.9 C871.956563,2787.71188 872.018438,2787.51588 871.890937,2787.375 Z M874.2525,2782.12501 L868.7475,2782.12501 C868.500027,2782.31615 868.135988,2782.2948 867.916085,2782.07627 C867.696183,2781.85773 867.696183,2781.51729 867.916085,2781.29875 C868.135988,2781.08021 868.500027,2781.05887 868.7475,2781.25001 L874.253438,2781.25001 C874.500911,2781.05887 874.86495,2781.08021 875.084852,2781.29875 C875.304755,2781.51729 875.304755,2781.85773 875.084852,2782.07627 C874.86495,2782.2948 874.500911,2782.31615 874.253438,2782.12501 L874.253438,2782.12501 L874.2525,2782.12501 Z M872.625,2783.87501 L868.5,2783.87501 C868.28085,2783.97449 868.017098,2783.91897 867.86491,2783.74133 C867.712723,2783.56368 867.712723,2783.31133 867.86491,2783.13369 C868.017098,2782.95605 868.28085,2782.90053 868.5,2783.00001 L872.625,2783.00001 C872.84415,2782.90053 873.107902,2782.95605 873.26009,2783.13369 C873.412277,2783.31133 873.412277,2783.56368 873.26009,2783.74133 C873.107902,2783.91897 872.84415,2783.97449 872.625,2783.87501 L872.625,2783.87501 L872.625,2783.87501 Z M874.475625,2780.37501 L868.5225,2780.37501 C868.300029,2780.48338 868.026589,2780.43087 867.868028,2780.24933 C867.709467,2780.06779 867.709467,2779.80723 867.868028,2779.62569 C868.026589,2779.44415 868.300029,2779.39164 868.5225,2779.50001 L874.4775,2779.50001 C874.699971,2779.39164 874.973411,2779.44415 875.131972,2779.62569 C875.290533,2779.80723 875.290533,2780.06779 875.131972,2780.24933 C874.973411,2780.43087 874.699971,2780.48338 874.4775,2780.37501 L874.4775,2780.37501 L874.475625,2780.37501 Z"></path>
        </g>
    </g>
</svg>
